<svg width="50" height="25" viewBox="0 0 50 25" fill="none" xmlns="http://www.w3.org/2000/svg">
<rect width="50" height="25" rx="3" fill="#3DC47E"/>
<path d="M20.7958 8.294V17H19.8658C19.7258 17 19.6078 16.978 19.5118 16.934C19.4158 16.886 19.3218 16.806 19.2298 16.694L14.8918 11.174C14.9038 11.314 14.9118 11.452 14.9158 11.588C14.9238 11.724 14.9278 11.85 14.9278 11.966V17H13.3378V8.294H14.2858C14.3618 8.294 14.4258 8.298 14.4778 8.306C14.5338 8.31 14.5838 8.324 14.6278 8.348C14.6718 8.368 14.7138 8.396 14.7538 8.432C14.7938 8.468 14.8378 8.516 14.8858 8.576L19.2538 14.12C19.2378 13.968 19.2258 13.822 19.2178 13.682C19.2098 13.538 19.2058 13.402 19.2058 13.274V8.294H20.7958ZM26.1275 13.178C26.1275 13.006 26.1035 12.842 26.0555 12.686C26.0115 12.53 25.9395 12.392 25.8395 12.272C25.7395 12.152 25.6135 12.058 25.4615 11.99C25.3095 11.918 25.1275 11.882 24.9155 11.882C24.5195 11.882 24.2095 11.994 23.9855 12.218C23.7615 12.442 23.6155 12.762 23.5475 13.178H26.1275ZM23.5235 14.162C23.5755 14.742 23.7395 15.166 24.0155 15.434C24.2955 15.702 24.6595 15.836 25.1075 15.836C25.3355 15.836 25.5315 15.81 25.6955 15.758C25.8635 15.702 26.0095 15.642 26.1335 15.578C26.2615 15.51 26.3755 15.45 26.4755 15.398C26.5795 15.342 26.6815 15.314 26.7815 15.314C26.9095 15.314 27.0095 15.362 27.0815 15.458L27.5615 16.058C27.3855 16.262 27.1915 16.432 26.9795 16.568C26.7675 16.7 26.5475 16.806 26.3195 16.886C26.0915 16.962 25.8615 17.014 25.6295 17.042C25.3975 17.074 25.1735 17.09 24.9575 17.09C24.5255 17.09 24.1215 17.02 23.7455 16.88C23.3735 16.736 23.0475 16.526 22.7675 16.25C22.4915 15.97 22.2735 15.624 22.1135 15.212C21.9535 14.8 21.8735 14.322 21.8735 13.778C21.8735 13.358 21.9415 12.962 22.0775 12.59C22.2175 12.218 22.4175 11.894 22.6775 11.618C22.9375 11.342 23.2535 11.124 23.6255 10.964C23.9975 10.8 24.4175 10.718 24.8855 10.718C25.2815 10.718 25.6455 10.782 25.9775 10.91C26.3135 11.034 26.6015 11.216 26.8415 11.456C27.0855 11.696 27.2735 11.992 27.4055 12.344C27.5415 12.692 27.6095 13.09 27.6095 13.538C27.6095 13.662 27.6035 13.764 27.5915 13.844C27.5795 13.924 27.5595 13.988 27.5315 14.036C27.5035 14.084 27.4655 14.118 27.4175 14.138C27.3695 14.154 27.3075 14.162 27.2315 14.162H23.5235ZM37.5014 10.814L35.5574 17H34.2194C34.1514 17 34.0894 16.978 34.0334 16.934C33.9814 16.89 33.9414 16.816 33.9134 16.712L32.9054 13.364C32.8654 13.236 32.8294 13.11 32.7974 12.986C32.7694 12.858 32.7434 12.73 32.7194 12.602C32.6914 12.73 32.6614 12.86 32.6294 12.992C32.6014 13.12 32.5674 13.248 32.5274 13.376L31.5074 16.712C31.4514 16.904 31.3314 17 31.1474 17H29.8754L27.9314 10.814H29.2514C29.3714 10.814 29.4714 10.842 29.5514 10.898C29.6354 10.954 29.6914 11.026 29.7194 11.114L30.4814 14.174C30.5294 14.37 30.5714 14.56 30.6074 14.744C30.6434 14.928 30.6774 15.11 30.7094 15.29C30.7574 15.11 30.8074 14.928 30.8594 14.744C30.9154 14.56 30.9734 14.37 31.0334 14.174L31.9394 11.102C31.9674 11.018 32.0214 10.948 32.1014 10.892C32.1814 10.836 32.2754 10.808 32.3834 10.808H33.1154C33.2314 10.808 33.3294 10.836 33.4094 10.892C33.4934 10.948 33.5494 11.018 33.5774 11.102L34.4534 14.174C34.5094 14.366 34.5634 14.556 34.6154 14.744C34.6674 14.928 34.7154 15.114 34.7594 15.302C34.7914 15.118 34.8254 14.934 34.8614 14.75C34.9014 14.562 34.9474 14.37 34.9994 14.174L35.7974 11.114C35.8254 11.026 35.8794 10.954 35.9594 10.898C36.0394 10.842 36.1334 10.814 36.2414 10.814H37.5014Z" fill="white"/>
</svg>
